<svg width="16" height="16" viewBox="0 0 16 16" fill="none" xmlns="http://www.w3.org/2000/svg">
<path d="M15.3039 5.58189L10.8978 5.16526C10.6201 5.14001 10.3801 4.96326 10.2666 4.69813L8.68842 0.87267C8.43592 0.241407 7.5394 0.241407 7.28689 0.87267L5.72136 4.69813C5.62036 4.96326 5.36785 5.14001 5.09009 5.16526L0.683877 5.58189C0.0273629 5.64502 -0.237768 6.46566 0.254618 6.90755L3.57506 9.82398C3.78969 10.0134 3.87807 10.2911 3.81494 10.5689L2.81755 14.6593C2.66604 15.3033 3.36043 15.8335 3.9412 15.4927L7.61515 13.3337C7.85503 13.1948 8.14541 13.1948 8.38529 13.3337L12.0594 15.4927C12.6401 15.8335 13.3345 15.316 13.1829 14.6593L12.1981 10.5689C12.135 10.2911 12.2234 10.0134 12.438 9.82398L15.7584 6.90755C16.2382 6.46566 15.9604 5.64502 15.3039 5.58189Z" fill="#FFC22B"/>
</svg>
