<svg width="26" height="23" viewBox="0 0 26 23" fill="none" xmlns="http://www.w3.org/2000/svg">
<path fill-rule="evenodd" clip-rule="evenodd" d="M13.9407 5.72664C13.4427 6.29583 12.5573 6.29583 12.0593 5.72664L11.1185 4.65146C10.2194 3.62379 8.81196 2.95483 7.375 2.95483C4.8571 2.95483 3 4.8387 3 7.1987C3 8.63302 3.54759 10.1873 4.56965 11.8131C5.58662 13.4309 6.98425 14.9763 8.45277 16.3424C9.91271 17.7005 11.3835 18.8268 12.4943 19.6156C12.6733 19.7427 12.8425 19.8607 13 19.969C13.1575 19.8607 13.3267 19.7427 13.5057 19.6156C14.6165 18.8268 16.0873 17.7005 17.5472 16.3424C19.0157 14.9763 20.4134 13.4309 21.4303 11.8131C22.4524 10.1873 23 8.63302 23 7.1987C23 4.8387 21.1429 2.95483 18.625 2.95483C17.188 2.95483 15.7806 3.62379 14.8815 4.65146L13.9407 5.72664ZM11.5531 1.73925C10.3431 0.930365 8.87999 0.454834 7.375 0.454834C3.525 0.454834 0.5 3.40988 0.5 7.1987C0.5 15.4548 13 22.9548 13 22.9548C13 22.9548 25.5 15.4548 25.5 7.1987C25.5 3.40988 22.475 0.454834 18.625 0.454834C17.12 0.454834 15.6569 0.930365 14.4469 1.73925C13.9082 2.09936 13.4197 2.52554 13 3.00524C12.5803 2.52554 12.0918 2.09936 11.5531 1.73925Z" fill="#FF6871"/>
</svg>
